<?xml version="1.0" encoding="UTF-8" standalone="no"?>
<!DOCTYPE svg PUBLIC "-//W3C//DTD SVG 1.1//EN" "http://www.w3.org/Graphics/SVG/1.1/DTD/svg11.dtd">
<svg version="1.1" xmlns="http://www.w3.org/2000/svg" xmlns:xlink="http://www.w3.org/1999/xlink" preserveAspectRatio="xMidYMid meet" viewBox="0 0 90 100" width="90" height="100"><defs><path d="M78.75 0C84.96 0 90 5.04 90 11.25C90 29 90 71 90 88.75C90 94.96 84.96 100 78.75 100C63 100 27 100 11.25 100C5.04 100 0 94.96 0 88.75C0 71 0 29 0 11.25C0 5.04 5.04 0 11.25 0C27 0 63 0 78.75 0Z" id="a1uafpCF3u"></path><radialGradient id="gradienta4vkpAoqL3" gradientUnits="userSpaceOnUse" cx="45" cy="0" dx="45" dy="153.85" r="153.85"><stop style="stop-color: #ffffff;stop-opacity: 1" offset="0%"></stop><stop style="stop-color: #010000;stop-opacity: 1" offset="100%"></stop></radialGradient><path d="M0 83.57L90 83.57L90 89.29L0 89.29L0 83.57Z" id="b1iexfnAAF"></path><linearGradient id="gradientasU1q6iDf" gradientUnits="userSpaceOnUse" x1="44.43" y1="78.14" x2="44.43" y2="93.86"><stop style="stop-color: #ffffff;stop-opacity: 1" offset="0%"></stop><stop style="stop-color: #010000;stop-opacity: 1" offset="100%"></stop></linearGradient></defs><g><g><g><use xlink:href="#a1uafpCF3u" opacity="1" fill="url(#gradienta4vkpAoqL3)"></use></g><g><use xlink:href="#b1iexfnAAF" opacity="1" fill="url(#gradientasU1q6iDf)"></use></g></g></g></svg>