<?xml version="1.0" encoding="UTF-8" standalone="no"?>
<!DOCTYPE svg PUBLIC "-//W3C//DTD SVG 1.1//EN" "http://www.w3.org/Graphics/SVG/1.1/DTD/svg11.dtd">
<svg version="1.1" xmlns="http://www.w3.org/2000/svg" xmlns:xlink="http://www.w3.org/1999/xlink" preserveAspectRatio="xMidYMid meet" viewBox="0 0 921 72" width="921" height="72"><defs><path d="M909.97 7.82C913.93 7.82 917.15 11.04 917.15 15C917.15 24.84 917.15 47.16 917.15 57C917.15 60.96 913.93 64.18 909.97 64.18C728.74 64.18 192.26 64.18 11.03 64.18C7.07 64.18 3.85 60.96 3.85 57C3.85 47.16 3.85 24.84 3.85 15C3.85 11.04 7.07 7.82 11.03 7.82C192.26 7.82 728.74 7.82 909.97 7.82Z" id="a5OfEhBL4"></path><linearGradient id="gradienth1u5qzR0mT" gradientUnits="userSpaceOnUse" x1="460.5" y1="7.82" x2="480.5" y2="-90.82"><stop style="stop-color: #777777;stop-opacity: 1" offset="0%"></stop><stop style="stop-color: #010000;stop-opacity: 1" offset="100%"></stop></linearGradient><path d="M275.2 7.8L265.93 7.8L223.2 63.8L233.8 63.8L275.2 7.8Z" id="g3aJvSuA7u"></path><linearGradient id="gradientb3oVjnABd9" gradientUnits="userSpaceOnUse" x1="249.2" y1="7.8" x2="317.1" y2="-17.88"><stop style="stop-color: #ffffff;stop-opacity: 1" offset="0%"></stop><stop style="stop-color: #010000;stop-opacity: 1" offset="100%"></stop></linearGradient><path d="M407.13 7.8L397.86 7.8L355.13 63.8L365.73 63.8L407.13 7.8Z" id="a2XW6pThoG"></path><linearGradient id="gradienta68UI7Ltk0" gradientUnits="userSpaceOnUse" x1="381.13" y1="7.8" x2="419.03" y2="22.45"><stop style="stop-color: #ffffff;stop-opacity: 1" offset="0%"></stop><stop style="stop-color: #010000;stop-opacity: 1" offset="100%"></stop></linearGradient><path d="M540.06 7.8L530.79 7.8L488.06 63.8L498.66 63.8L540.06 7.8Z" id="h396TpMnmt"></path><linearGradient id="gradienteYU4AxwbC" gradientUnits="userSpaceOnUse" x1="514.06" y1="7.8" x2="548.63" y2="20.79"><stop style="stop-color: #ffffff;stop-opacity: 1" offset="0%"></stop><stop style="stop-color: #010000;stop-opacity: 1" offset="100%"></stop></linearGradient><path d="M670.66 7.8L661.39 7.8L618.66 63.8L629.26 63.8L670.66 7.8Z" id="b2KNacAPm"></path><linearGradient id="gradientb3c1IIFYFg" gradientUnits="userSpaceOnUse" x1="644.66" y1="7.8" x2="678.56" y2="22.78"><stop style="stop-color: #ffffff;stop-opacity: 1" offset="0%"></stop><stop style="stop-color: #010000;stop-opacity: 1" offset="100%"></stop></linearGradient><path d="M802.26 7.8L792.99 7.8L750.26 63.8L760.86 63.8L802.26 7.8Z" id="a27mbGTTzv"></path><linearGradient id="gradientbW6G2Hgqe" gradientUnits="userSpaceOnUse" x1="776.26" y1="7.8" x2="801.49" y2="21.45"><stop style="stop-color: #ffffff;stop-opacity: 1" offset="0%"></stop><stop style="stop-color: #010000;stop-opacity: 1" offset="100%"></stop></linearGradient></defs><g><g><g><use xlink:href="#a5OfEhBL4" opacity="1" fill="url(#gradienth1u5qzR0mT)"></use><g><use xlink:href="#a5OfEhBL4" opacity="1" fill-opacity="0" stroke="#ffffff" stroke-width="1" stroke-opacity="1"></use></g></g><g><use xlink:href="#g3aJvSuA7u" opacity="1" fill="url(#gradientb3oVjnABd9)"></use></g><g><use xlink:href="#a2XW6pThoG" opacity="1" fill="url(#gradienta68UI7Ltk0)"></use></g><g><use xlink:href="#h396TpMnmt" opacity="1" fill="url(#gradienteYU4AxwbC)"></use></g><g><use xlink:href="#b2KNacAPm" opacity="1" fill="url(#gradientb3c1IIFYFg)"></use></g><g><use xlink:href="#a27mbGTTzv" opacity="1" fill="url(#gradientbW6G2Hgqe)"></use></g></g></g></svg>